<svg xmlns="http://www.w3.org/2000/svg" width="150" height="150" viewBox="0 0 150 150">
  <g id="ind_agriculture" transform="translate(-28 -20.285)">
    <g id="Group_3650" data-name="Group 3650" transform="translate(30 22.285)">
      <path id="Path_6746" data-name="Path 6746" d="M114.206,45.99V58.581a11.576,11.576,0,0,0-8.452-3.667,1.566,1.566,0,1,0,0,3.132,8.444,8.444,0,0,1,8.452,8.418v8.663a11.576,11.576,0,0,0-8.452-3.667,1.566,1.566,0,1,0,0,3.132,8.444,8.444,0,0,1,8.452,8.418v8.663a11.576,11.576,0,0,0-8.452-3.667,1.566,1.566,0,1,0,0,3.132,8.444,8.444,0,0,1,8.452,8.418v8.663a11.576,11.576,0,0,0-8.452-3.667,1.566,1.566,0,1,0,0,3.132,8.444,8.444,0,0,1,8.452,8.418v16.051H78.71V111.938c.714.071,1.707.14,2.878.14,3.709,0,9.144-.7,12.7-4.242,5.728-5.7,4.048-16.236,3.973-16.681a1.568,1.568,0,0,0-1.293-1.288c-.446-.073-11.022-1.747-16.749,3.956a11.815,11.815,0,0,0-1.513,1.89V74.48c2.079-1.648,8.376-7.2,8.376-14.09,0-8.069-8.665-14.33-9.034-14.593a1.581,1.581,0,0,0-1.829,0c-.369.263-9.034,6.524-9.034,14.593,0,6.887,6.3,12.442,8.376,14.09v8.091a11.793,11.793,0,0,0-1.472-1.829c-5.729-5.708-16.3-4.031-16.749-3.956a1.568,1.568,0,0,0-1.293,1.288c-.074.445-1.756,10.976,3.973,16.681C63.587,98.3,69.02,99,72.73,99c1.146,0,2.125-.067,2.835-.136V112.4a11.792,11.792,0,0,0-1.472-1.829c-5.729-5.708-16.3-4.03-16.749-3.956a1.568,1.568,0,0,0-1.293,1.288c-.074.445-1.756,10.976,3.973,16.681,3.562,3.548,9,4.242,12.7,4.242,1.146,0,2.125-.067,2.835-.136v3.462H32.948V111.938c.714.071,1.706.14,2.877.14,3.709,0,9.143-.7,12.7-4.242,5.729-5.7,4.048-16.236,3.973-16.681a1.568,1.568,0,0,0-1.293-1.288c-.447-.073-11.022-1.747-16.749,3.956a11.812,11.812,0,0,0-1.513,1.889V74.48c2.079-1.648,8.376-7.2,8.376-14.09,0-8.069-8.665-14.33-9.034-14.593a1.581,1.581,0,0,0-1.829,0c-.369.263-9.035,6.524-9.035,14.593,0,6.887,6.3,12.442,8.377,14.09v8.091a11.8,11.8,0,0,0-1.472-1.829c-5.728-5.708-16.3-4.031-16.749-3.956a1.568,1.568,0,0,0-1.293,1.288c-.074.445-1.755,10.976,3.973,16.681,3.562,3.548,9,4.242,12.7,4.242,1.147,0,2.126-.067,2.836-.136V112.4a11.8,11.8,0,0,0-1.472-1.829c-5.728-5.708-16.3-4.03-16.749-3.956a1.568,1.568,0,0,0-1.293,1.288c-.074.445-1.755,10.976,3.973,16.681,3.562,3.548,9,4.242,12.7,4.242,1.147,0,2.126-.067,2.836-.136v3.462H11.572a1.566,1.566,0,1,0,0,3.132H134.222a1.566,1.566,0,1,0,0-3.132H117.351v-8.506a8.444,8.444,0,0,1,8.452-8.418,1.566,1.566,0,1,0,0-3.132,11.576,11.576,0,0,0-8.452,3.667V107.1a8.444,8.444,0,0,1,8.452-8.418,1.566,1.566,0,1,0,0-3.132,11.576,11.576,0,0,0-8.452,3.667V90.554a8.444,8.444,0,0,1,8.452-8.418,1.566,1.566,0,1,0,0-3.132,11.576,11.576,0,0,0-8.452,3.667V74.007a8.444,8.444,0,0,1,8.452-8.418,1.566,1.566,0,1,0,0-3.132,11.576,11.576,0,0,0-8.452,3.667V45.99C121.841,45.194,109.716,45.194,114.206,45.99ZM82.447,96.039c3.614-3.6,10.192-3.444,12.852-3.213.236,2.644.4,9.184-3.23,12.8s-10.194,3.444-12.851,3.213C78.98,106.191,78.82,99.651,82.447,96.039ZM75.1,95.756c-2.657.237-9.222.4-12.849-3.216s-3.46-10.152-3.228-12.8c2.656-.237,9.22-.4,12.849,3.216S75.33,93.109,75.1,95.756Zm0,29.83c-2.657.236-9.222.4-12.849-3.216s-3.46-10.152-3.228-12.8c2.656-.239,9.22-.4,12.849,3.216S75.33,122.939,75.1,125.586Zm-4.763-65.2c0-5.091,4.761-9.615,6.8-11.323,2.045,1.7,6.8,6.214,6.8,11.323,0,5.091-4.761,9.615-6.8,11.323C75.091,70.009,70.334,65.5,70.334,60.389ZM36.685,96.039c3.613-3.6,10.187-3.447,12.849-3.215.233,2.649.386,9.2-3.228,12.8s-10.193,3.446-12.849,3.215C33.224,106.188,33.071,99.637,36.685,96.039Zm-7.35-.283c-2.657.237-9.221.4-12.849-3.216s-3.46-10.152-3.228-12.8c2.656-.236,9.222-.4,12.85,3.216S29.568,93.109,29.335,95.756Zm0,29.83c-2.657.236-9.221.4-12.849-3.216s-3.46-10.152-3.228-12.8c2.656-.234,9.222-.4,12.85,3.216S29.568,122.939,29.335,125.586Zm-4.763-65.2c0-5.091,4.762-9.615,6.806-11.323,2.045,1.7,6.8,6.214,6.8,11.323,0,5.09-4.758,9.614-6.8,11.322C29.331,70,24.572,65.479,24.572,60.389Z" fill="#f19f1d"/>
      <path id="Path_6785" data-name="Path 6785" d="M134.582,18.959a11.59,11.59,0,0,0-9.3,4.68c-.852-4.157-2.25-8.5-3.752-10.638a7.011,7.011,0,0,0-11.5,0c-1.5,2.137-2.9,6.481-3.753,10.638a11.59,11.59,0,0,0-9.3-4.68,1.566,1.566,0,1,0,0,3.132,8.444,8.444,0,0,1,8.452,8.418s0,.006,0,.01c0,.024,0,.051,0,.075,0,10.265,4.289,14.6,8.78,15.4a5.462,5.462,0,0,0,3.145,0c4.49-.8,8.779-5.132,8.779-15.4,0-.024,0-.051,0-.075,0,0,0-.006,0-.01a8.444,8.444,0,0,1,8.452-8.418,1.566,1.566,0,1,0,0-3.132Zm-18.8,24.048c-4.445,0-7.207-4.756-7.207-12.414,0-4.606,2.186-13.169,4.033-15.8a3.859,3.859,0,0,1,6.348,0c1.847,2.627,4.032,11.19,4.032,15.8C122.985,38.25,120.224,43.007,115.779,43.007Z" fill="#004190"/>
    </g>
    <rect id="Rectangle_945" data-name="Rectangle 945" width="150" height="150" transform="translate(28 20.285)" fill="none"/>
  </g>
</svg>
