<svg xmlns="http://www.w3.org/2000/svg" width="150" height="150" viewBox="0 0 150 150">
  <g id="ind_education" transform="translate(-193 113.361)">
    <g id="Group" transform="translate(200.621 -90.654)">
      <path id="Compound_Path" data-name="Compound Path" d="M135.726,58.992a3.433,3.433,0,0,0-1.384-2.871L76.963,24.157a12.149,12.149,0,0,0-12,0L7.585,56.121A3.224,3.224,0,0,0,6.2,58.992,2.653,2.653,0,0,0,7.739,61.48L30.2,71.05v35.792a2.936,2.936,0,0,0,.923,2.3,1.821,1.821,0,0,0,2.154.383,87.8,87.8,0,0,1,75.223,0h.923a1.52,1.52,0,0,0,1.231-.574,3.058,3.058,0,0,0,1.077-2.3V70.859l18.46-7.656-.018,44.015c-4.063,1.433-6.636,5.807-6.055,11.011s4.158,8.591,8.38,8.591,6.828-3.387,7.409-8.591-1-9.578-5.06-11.011L134.8,61.1a5.011,5.011,0,0,0,.923-2.105Zm-28.612,43.831a91.326,91.326,0,0,0-72.3,0V70.476a88.163,88.163,0,0,1,72.3,0Zm2.615-37.132a91.9,91.9,0,0,0-77.685,0L14.815,58.418l51.995-28.9a7.867,7.867,0,0,1,8.153,0l52.149,28.9Zm27.2,51.245c0,2.643-2.307,6.036-4.431,6.036-2.15,0-5.285-3.131-5.367-5.8,0-2.748,3.158-6.933,5.367-6.933C134.644,110.338,136.928,114.261,136.927,116.936Z" transform="translate(-6.199 -22.572)" fill="#f19f1d"/>
      <g id="Ellipse_48" data-name="Ellipse 48" transform="translate(117.316 83.669)" fill="none" stroke="#004190" stroke-width="5">
        <ellipse cx="8.721" cy="10.459" rx="8.721" ry="10.459" stroke="none"/>
        <ellipse cx="8.721" cy="10.459" rx="6.221" ry="7.959" fill="none"/>
      </g>
    </g>
    <rect id="Rectangle_944" data-name="Rectangle 944" width="150" height="150" transform="translate(193 -113.361)" fill="none"/>
  </g>
</svg>
